{
  "accessors": [
    {
      "bufferView": 2,
      "componentType": 5126,
      "count": 1158,
      "max": [
        45.52458953857422,
        92.38973999023438,
        170.6201629638672
      ],
      "min": [
        -49.08280944824219,
        0.0,
        -176.87635803222656
      ],
      "type": "VEC3"
    },
    {
      "bufferView": 2,
      "byteOffset": 13896,
      "componentType": 5126,
      "count": 1158,
      "max": [
        1.0,
        1.0,
        1.0
      ],
      "min": [
        -1.0,
        -1.0,
        -1.0
      ],
      "type": "VEC3"
    },
    {
      "bufferView": 3,
      "componentType": 5126,
      "count": 1158,
      "max": [
        1.0,
        1.0,
        1.0,
        1.0
      ],
      "min": [
        -1.0,
        -1.0,
        -1.0,
        -1.0
      ],
      "type": "VEC4"
    },
    {
      "bufferView": 1,
      "componentType": 5126,
      "count": 1158,
      "max": [
        0.9950644373893738,
        0.9906060695648193
      ],
      "min": [
        0.002088285982608795,
        0.0027902722358703613
      ],
      "type": "VEC2"
    },
    {
      "bufferView": 0,
      "componentType": 5125,
      "count": 2460,
      "type": "SCALAR"
    },
    {
      "bufferView": 2,
      "byteOffset": 27792,
      "componentType": 5126,
      "count": 3590,
      "max": [
        39.998130798339844,
        192.30520629882813,
        73.81897735595703
      ],
      "min": [
        -86.31957244873047,
        92.38973999023438,
        -76.98699951171875
      ],
      "type": "VEC3"
    },
    {
      "bufferView": 2,
      "byteOffset": 70872,
      "componentType": 5126,
      "count": 3590,
      "max": [
        1.0,
        1.0,
        1.0
      ],
      "min": [
        -1.0,
        -1.0,
        -1.0
      ],
      "type": "VEC3"
    },
    {
      "bufferView": 3,
      "byteOffset": 18528,
      "componentType": 5126,
      "count": 3590,
      "max": [
        1.0,
        1.0,
        1.0,
        1.0
      ],
      "min": [
        -1.0,
        -1.0,
        -1.0,
        -1.0
      ],
      "type": "VEC4"
    },
    {
      "bufferView": 1,
      "byteOffset": 9264,
      "componentType": 5126,
      "count": 3590,
      "max": [
        0.9863647818565369,
        0.9878692030906677
      ],
      "min": [
        0.009412416256964207,
        0.0034090280532836914
      ],
      "type": "VEC2"
    },
    {
      "bufferView": 0,
      "byteOffset": 9840,
      "componentType": 5125,
      "count": 10380,
      "type": "SCALAR"
    },
    {
      "bufferView": 2,
      "byteOffset": 113952,
      "componentType": 5126,
      "count": 143,
      "max": [
        33.534000396728516,
        174.34622192382813,
        55.90071105957031
      ],
      "min": [
        27.5407657623291,
        110.41668701171875,
        -29.73920249938965
      ],
      "type": "VEC3"
    },
    {
      "bufferView": 2,
      "byteOffset": 115668,
      "componentType": 5126,
      "count": 143,
      "max": [
        1.0,
        0.16891348361968994,
        0.17959842085838318
      ],
      "min": [
        0.9836840629577637,
        -0.16895733773708344,
        -0.17959748208522797
      ],
      "type": "VEC3"
    },
    {
      "bufferView": 3,
      "byteOffset": 75968,
      "componentType": 5126,
      "count": 143,
      "max": [
        0.16894857585430145,
        0.999983549118042,
        0.04080270230770111,
        1.0
      ],
      "min": [
        -0.16890709102153778,
        0.9854679107666016,
        -0.015119017101824284,
        1.0
      ],
      "type": "VEC4"
    },
    {
      "bufferView": 1,
      "byteOffset": 37984,
      "componentType": 5126,
      "count": 143,
      "max": [
        0.9027358889579773,
        0.9858961701393127
      ],
      "min": [
        0.09000016003847122,
        0.004708593711256981
      ],
      "type": "VEC2"
    },
    {
      "bufferView": 0,
      "byteOffset": 51360,
      "componentType": 5125,
      "count": 720,
      "type": "SCALAR"
    }
  ],
  "asset": {
    "extras": {
      "author": "Steve Henry (https://sketchfab.com/Trinitite_Studio)",
      "license": "CC-BY-4.0 (http://creativecommons.org/licenses/by/4.0/)",
      "source": "https://sketchfab.com/3d-models/retro-tv-sony-trinitron-5e54609ffeb44c8b88f8392b3323667b",
      "title": "Retro TV Sony Trinitron"
    },
    "generator": "Sketchfab-16.59.0",
    "version": "2.0"
  },
  "bufferViews": [
    {
      "buffer": 0,
      "byteLength": 54240,
      "name": "floatBufferViews",
      "target": 34963
    },
    {
      "buffer": 0,
      "byteLength": 39128,
      "byteOffset": 54240,
      "byteStride": 8,
      "name": "floatBufferViews",
      "target": 34962
    },
    {
      "buffer": 0,
      "byteLength": 117384,
      "byteOffset": 93368,
      "byteStride": 12,
      "name": "floatBufferViews",
      "target": 34962
    },
    {
      "buffer": 0,
      "byteLength": 78256,
      "byteOffset": 210752,
      "byteStride": 16,
      "name": "floatBufferViews",
      "target": 34962
    }
  ],
  "buffers": [
    {
      "byteLength": 289008,
      "uri": "scene.bin"
    }
  ],
  "images": [
    {
      "uri": "textures/Stand_TV_MAT_baseColor.png"
    },
    {
      "uri": "textures/Stand_TV_MAT_metallicRoughness.png"
    },
    {
      "uri": "textures/Stand_TV_MAT_normal.png"
    },
    {
      "uri": "textures/Televiseur_MAT_baseColor.png"
    },
    {
      "uri": "textures/Televiseur_MAT_metallicRoughness.png"
    },
    {
      "uri": "textures/Televiseur_MAT_normal.png"
    },
    {
      "uri": "textures/TV_Screen_MAT_baseColor.png"
    },
    {
      "uri": "textures/TV_Screen_MAT_metallicRoughness.png"
    },
    {
      "uri": "textures/TV_Screen_MAT_normal.png"
    }
  ],
  "materials": [
    {
      "doubleSided": true,
      "name": "Stand_TV_MAT",
      "normalTexture": {
        "index": 2
      },
      "occlusionTexture": {
        "index": 1
      },
      "pbrMetallicRoughness": {
        "baseColorTexture": {
          "index": 0
        },
        "metallicRoughnessTexture": {
          "index": 1
        }
      }
    },
    {
      "doubleSided": true,
      "name": "Televiseur_MAT",
      "normalTexture": {
        "index": 5
      },
      "occlusionTexture": {
        "index": 4
      },
      "pbrMetallicRoughness": {
        "baseColorTexture": {
          "index": 3
        },
        "metallicRoughnessTexture": {
          "index": 4
        }
      }
    },
    {
      "doubleSided": true,
      "name": "TV_Screen_MAT",
      "normalTexture": {
        "index": 8
      },
      "occlusionTexture": {
        "index": 7
      },
      "pbrMetallicRoughness": {
        "baseColorTexture": {
          "index": 6
        },
        "metallicRoughnessTexture": {
          "index": 7
        }
      }
    }
  ],
  "meshes": [
    {
      "name": "Stand_TV_Stand_TV_MAT_0",
      "primitives": [
        {
          "attributes": {
            "NORMAL": 1,
            "POSITION": 0,
            "TANGENT": 2,
            "TEXCOORD_0": 3
          },
          "indices": 4,
          "material": 0,
          "mode": 4
        }
      ]
    },
    {
      "name": "Retro_TV_Televiseur_MAT_0",
      "primitives": [
        {
          "attributes": {
            "NORMAL": 6,
            "POSITION": 5,
            "TANGENT": 7,
            "TEXCOORD_0": 8
          },
          "indices": 9,
          "material": 1,
          "mode": 4
        }
      ]
    },
    {
      "name": "Retro_TV_TV_Screen_MAT_0",
      "primitives": [
        {
          "attributes": {
            "NORMAL": 11,
            "POSITION": 10,
            "TANGENT": 12,
            "TEXCOORD_0": 13
          },
          "indices": 14,
          "material": 2,
          "mode": 4
        }
      ]
    }
  ],
  "nodes": [
    {
      "children": [
        1
      ],
      "matrix": [
        1.0,
        0.0,
        0.0,
        0.0,
        0.0,
        2.220446049250313e-16,
        -1.0,
        0.0,
        0.0,
        1.0,
        2.220446049250313e-16,
        0.0,
        0.0,
        0.0,
        0.0,
        1.0
      ],
      "name": "Sketchfab_model"
    },
    {
      "children": [
        2
      ],
      "matrix": [
        0.009999999776482582,
        0.0,
        0.0,
        0.0,
        0.0,
        0.0,
        0.009999999776482582,
        0.0,
        0.0,
        -0.009999999776482582,
        0.0,
        0.0,
        0.0,
        0.0,
        0.0,
        1.0
      ],
      "name": "d4f041616dab43a591854d703e3d8058.fbx"
    },
    {
      "children": [
        3,
        5
      ],
      "name": "RootNode"
    },
    {
      "children": [
        4
      ],
      "name": "Stand_TV"
    },
    {
      "mesh": 0,
      "name": "Stand_TV_Stand_TV_MAT_0"
    },
    {
      "children": [
        6,
        7
      ],
      "name": "Retro_TV"
    },
    {
      "mesh": 1,
      "name": "Retro_TV_Televiseur_MAT_0"
    },
    {
      "mesh": 2,
      "name": "Retro_TV_TV_Screen_MAT_0"
    }
  ],
  "samplers": [
    {
      "magFilter": 9729,
      "minFilter": 9987,
      "wrapS": 10497,
      "wrapT": 10497
    }
  ],
  "scene": 0,
  "scenes": [
    {
      "name": "Sketchfab_Scene",
      "nodes": [
        0
      ]
    }
  ],
  "textures": [
    {
      "sampler": 0,
      "source": 0
    },
    {
      "sampler": 0,
      "source": 1
    },
    {
      "sampler": 0,
      "source": 2
    },
    {
      "sampler": 0,
      "source": 3
    },
    {
      "sampler": 0,
      "source": 4
    },
    {
      "sampler": 0,
      "source": 5
    },
    {
      "sampler": 0,
      "source": 6
    },
    {
      "sampler": 0,
      "source": 7
    },
    {
      "sampler": 0,
      "source": 8
    }
  ]
}
