{
  "accessors": [
    {
      "bufferView": 2,
      "componentType": 5126,
      "count": 7648,
      "max": [
        1747.97705078125,
        -3475.773681640625,
        7.354161262512207
      ],
      "min": [
        -1747.97705078125,
        -4445.59765625,
        -3308.250732421875
      ],
      "type": "VEC3"
    },
    {
      "bufferView": 2,
      "byteOffset": 91776,
      "componentType": 5126,
      "count": 7648,
      "max": [
        1.0,
        1.0,
        1.0
      ],
      "min": [
        -1.0,
        -1.0,
        -1.0
      ],
      "type": "VEC3"
    },
    {
      "bufferView": 3,
      "componentType": 5126,
      "count": 7648,
      "max": [
        1.0,
        1.0,
        1.0,
        1.0
      ],
      "min": [
        -1.0,
        -1.0,
        -1.0,
        1.0
      ],
      "type": "VEC4"
    },
    {
      "bufferView": 1,
      "componentType": 5126,
      "count": 7648,
      "max": [
        0.9961775541305542,
        0.979682207107544
      ],
      "min": [
        0.009444131515920162,
        0.0029369965195655823
      ],
      "type": "VEC2"
    },
    {
      "bufferView": 1,
      "byteOffset": 61184,
      "componentType": 5126,
      "count": 7648,
      "max": [
        0.9961775541305542,
        0.979682207107544
      ],
      "min": [
        0.009444131515920162,
        0.0029369965195655823
      ],
      "type": "VEC2"
    },
    {
      "bufferView": 0,
      "componentType": 5125,
      "count": 23046,
      "type": "SCALAR"
    },
    {
      "bufferView": 2,
      "byteOffset": 183552,
      "componentType": 5126,
      "count": 2374,
      "max": [
        1802.5,
        122.96495056152344,
        62.200111389160156
      ],
      "min": [
        -1802.4996337890625,
        -3775.673583984375,
        -3355.4423828125
      ],
      "type": "VEC3"
    },
    {
      "bufferView": 2,
      "byteOffset": 212040,
      "componentType": 5126,
      "count": 2374,
      "max": [
        1.0,
        1.0,
        1.0
      ],
      "min": [
        -1.0,
        -1.0,
        -1.0
      ],
      "type": "VEC3"
    },
    {
      "bufferView": 3,
      "byteOffset": 122368,
      "componentType": 5126,
      "count": 2374,
      "max": [
        1.0,
        1.0,
        1.0,
        1.0
      ],
      "min": [
        -1.0,
        -1.0,
        -1.0,
        1.0
      ],
      "type": "VEC4"
    },
    {
      "bufferView": 1,
      "byteOffset": 122368,
      "componentType": 5126,
      "count": 2374,
      "max": [
        0.9939227104187012,
        0.9926154613494873
      ],
      "min": [
        0.009959389455616474,
        0.014284726232290268
      ],
      "type": "VEC2"
    },
    {
      "bufferView": 1,
      "byteOffset": 141360,
      "componentType": 5126,
      "count": 2374,
      "max": [
        0.9939227104187012,
        0.9926154613494873
      ],
      "min": [
        0.009959389455616474,
        0.014284726232290268
      ],
      "type": "VEC2"
    },
    {
      "bufferView": 0,
      "byteOffset": 92184,
      "componentType": 5125,
      "count": 7284,
      "type": "SCALAR"
    },
    {
      "bufferView": 2,
      "byteOffset": 240528,
      "componentType": 5126,
      "count": 2002,
      "max": [
        1805.54345703125,
        1936.0347900390625,
        16.11471176147461
      ],
      "min": [
        -1805.54345703125,
        -1705.3758544921875,
        -3358.299560546875
      ],
      "type": "VEC3"
    },
    {
      "bufferView": 2,
      "byteOffset": 264552,
      "componentType": 5126,
      "count": 2002,
      "max": [
        1.0,
        1.0,
        1.0
      ],
      "min": [
        -1.0,
        -1.0,
        -1.0
      ],
      "type": "VEC3"
    },
    {
      "bufferView": 3,
      "byteOffset": 160352,
      "componentType": 5126,
      "count": 2002,
      "max": [
        1.0,
        1.0,
        1.0,
        1.0
      ],
      "min": [
        -1.0,
        -1.0,
        -1.0,
        1.0
      ],
      "type": "VEC4"
    },
    {
      "bufferView": 1,
      "byteOffset": 160352,
      "componentType": 5126,
      "count": 2002,
      "max": [
        0.9947827458381653,
        0.994477391242981
      ],
      "min": [
        0.009255977347493172,
        0.014447435736656189
      ],
      "type": "VEC2"
    },
    {
      "bufferView": 1,
      "byteOffset": 176368,
      "componentType": 5126,
      "count": 2002,
      "max": [
        0.9947827458381653,
        0.994477391242981
      ],
      "min": [
        0.009255977347493172,
        0.014447435736656189
      ],
      "type": "VEC2"
    },
    {
      "bufferView": 0,
      "byteOffset": 121320,
      "componentType": 5125,
      "count": 7218,
      "type": "SCALAR"
    }
  ],
  "asset": {
    "extras": {
      "author": "Poring (https://sketchfab.com/poring)",
      "license": "CC-BY-4.0 (http://creativecommons.org/licenses/by/4.0/)",
      "source": "https://sketchfab.com/3d-models/sony-pvm-14l2-crt-tv-ab19c2419c2647299ce96d027b3e7f5e",
      "title": "Sony PVM-14L2 CRT TV"
    },
    "generator": "Sketchfab-15.10.0",
    "version": "2.0"
  },
  "bufferViews": [
    {
      "buffer": 0,
      "byteLength": 150192,
      "name": "floatBufferViews",
      "target": 34963
    },
    {
      "buffer": 0,
      "byteLength": 192384,
      "byteOffset": 150192,
      "byteStride": 8,
      "name": "floatBufferViews",
      "target": 34962
    },
    {
      "buffer": 0,
      "byteLength": 288576,
      "byteOffset": 342576,
      "byteStride": 12,
      "name": "floatBufferViews",
      "target": 34962
    },
    {
      "buffer": 0,
      "byteLength": 192384,
      "byteOffset": 631152,
      "byteStride": 16,
      "name": "floatBufferViews",
      "target": 34962
    }
  ],
  "buffers": [
    {
      "byteLength": 823536,
      "uri": "scene.bin"
    }
  ],
  "images": [
    {
      "uri": "textures/crt_back_baseColor.png"
    },
    {
      "uri": "textures/crt_back_metallicRoughness.png"
    },
    {
      "uri": "textures/crt_back_normal.png"
    },
    {
      "uri": "textures/crt_front_baseColor.png"
    },
    {
      "uri": "textures/crt_front_metallicRoughness.png"
    },
    {
      "uri": "textures/crt_front_normal.png"
    },
    {
      "uri": "textures/crt_top_baseColor.png"
    },
    {
      "uri": "textures/crt_top_metallicRoughness.png"
    },
    {
      "uri": "textures/crt_top_normal.png"
    }
  ],
  "materials": [
    {
      "alphaCutoff": 0.7481927563969718,
      "alphaMode": "MASK",
      "doubleSided": true,
      "name": "crt_back",
      "normalTexture": {
        "index": 2
      },
      "occlusionTexture": {
        "index": 1
      },
      "pbrMetallicRoughness": {
        "baseColorTexture": {
          "index": 0
        },
        "metallicRoughnessTexture": {
          "index": 1
        }
      }
    },
    {
      "alphaCutoff": 0.33981055942265725,
      "alphaMode": "MASK",
      "doubleSided": true,
      "name": "crt_front",
      "normalTexture": {
        "index": 5
      },
      "occlusionTexture": {
        "index": 4
      },
      "pbrMetallicRoughness": {
        "baseColorTexture": {
          "index": 3
        },
        "metallicRoughnessTexture": {
          "index": 4
        }
      }
    },
    {
      "alphaCutoff": 0.8335263497945898,
      "alphaMode": "MASK",
      "doubleSided": true,
      "name": "crt_top",
      "normalTexture": {
        "index": 8
      },
      "occlusionTexture": {
        "index": 7
      },
      "pbrMetallicRoughness": {
        "baseColorTexture": {
          "index": 6
        },
        "metallicRoughnessTexture": {
          "index": 7
        }
      }
    }
  ],
  "meshes": [
    {
      "name": "back_case_low_crt_back_0",
      "primitives": [
        {
          "attributes": {
            "NORMAL": 1,
            "POSITION": 0,
            "TANGENT": 2,
            "TEXCOORD_0": 3,
            "TEXCOORD_1": 4
          },
          "indices": 5,
          "material": 0,
          "mode": 4
        }
      ]
    },
    {
      "name": "front_case_low_crt_front_0",
      "primitives": [
        {
          "attributes": {
            "NORMAL": 7,
            "POSITION": 6,
            "TANGENT": 8,
            "TEXCOORD_0": 9,
            "TEXCOORD_1": 10
          },
          "indices": 11,
          "material": 1,
          "mode": 4
        }
      ]
    },
    {
      "name": "top_case_low_crt_top_0",
      "primitives": [
        {
          "attributes": {
            "NORMAL": 13,
            "POSITION": 12,
            "TANGENT": 14,
            "TEXCOORD_0": 15,
            "TEXCOORD_1": 16
          },
          "indices": 17,
          "material": 2,
          "mode": 4
        }
      ]
    }
  ],
  "nodes": [
    {
      "children": [
        1
      ],
      "matrix": [
        1.0,
        0.0,
        0.0,
        0.0,
        0.0,
        2.220446049250313e-16,
        -1.0,
        0.0,
        0.0,
        1.0,
        2.220446049250313e-16,
        0.0,
        0.0,
        0.0,
        0.0,
        1.0
      ],
      "name": "Sketchfab_model"
    },
    {
      "children": [
        2
      ],
      "matrix": [
        0.009999999776482582,
        0.0,
        0.0,
        0.0,
        0.0,
        0.0,
        0.009999999776482582,
        0.0,
        0.0,
        -0.009999999776482582,
        0.0,
        0.0,
        0.0,
        0.0,
        0.0,
        1.0
      ],
      "name": "45ad4d5c495f40f489c1d75df1666aab.fbx"
    },
    {
      "children": [
        3,
        5,
        7
      ],
      "name": "RootNode"
    },
    {
      "children": [
        4
      ],
      "matrix": [
        0.009999999776482582,
        0.0,
        0.0,
        0.0,
        0.0,
        -1.6292067575027046e-09,
        0.00999999977648245,
        0.0,
        0.0,
        -0.00999999977648245,
        -1.6292067575027046e-09,
        0.0,
        1.6260706843240769e-06,
        0.0,
        0.0,
        1.0
      ],
      "name": "back_case_low"
    },
    {
      "mesh": 0,
      "name": "back_case_low_crt_back_0"
    },
    {
      "children": [
        6
      ],
      "matrix": [
        0.009999999776482582,
        0.0,
        0.0,
        0.0,
        0.0,
        -1.6292067575027046e-09,
        0.00999999977648245,
        0.0,
        0.0,
        -0.00999999977648245,
        -1.6292067575027046e-09,
        0.0,
        0.0,
        0.0,
        0.0,
        1.0
      ],
      "name": "front_case_low"
    },
    {
      "mesh": 1,
      "name": "front_case_low_crt_front_0"
    },
    {
      "children": [
        8
      ],
      "matrix": [
        0.009999999776482582,
        0.0,
        0.0,
        0.0,
        0.0,
        -1.6292067575027046e-09,
        0.00999999977648245,
        0.0,
        0.0,
        -0.00999999977648245,
        -1.6292067575027046e-09,
        0.0,
        0.0,
        0.0,
        -21.22260093688965,
        1.0
      ],
      "name": "top_case_low"
    },
    {
      "mesh": 2,
      "name": "top_case_low_crt_top_0"
    }
  ],
  "samplers": [
    {
      "magFilter": 9729,
      "minFilter": 9987,
      "wrapS": 10497,
      "wrapT": 10497
    }
  ],
  "scene": 0,
  "scenes": [
    {
      "name": "Sketchfab_Scene",
      "nodes": [
        0
      ]
    }
  ],
  "textures": [
    {
      "sampler": 0,
      "source": 0
    },
    {
      "sampler": 0,
      "source": 1
    },
    {
      "sampler": 0,
      "source": 2
    },
    {
      "sampler": 0,
      "source": 3
    },
    {
      "sampler": 0,
      "source": 4
    },
    {
      "sampler": 0,
      "source": 5
    },
    {
      "sampler": 0,
      "source": 6
    },
    {
      "sampler": 0,
      "source": 7
    },
    {
      "sampler": 0,
      "source": 8
    }
  ]
}
